<svg xmlns="http://www.w3.org/2000/svg" version="1.1" xmlns:xlink="http://www.w3.org/1999/xlink" xmlns:svgjs="http://svgjs.dev/svgjs" width="1000" height="1000" viewBox="0 0 1000 1000"><rect width="1000" height="1000" fill="#000000"></rect><g transform="matrix(0.7,0,0,0.7,150.07466666666664,272.8363879394532)"><svg viewBox="0 0 375 243" data-background-color="#ffffff" preserveAspectRatio="xMidYMid meet" height="648" width="1000" xmlns="http://www.w3.org/2000/svg" xmlns:xlink="http://www.w3.org/1999/xlink"><g id="tight-bounds" transform="matrix(1,0,0,1,-0.03976036071776434,0.19479217529297443)"><svg viewBox="0 0 375.07952880859375 242.61041259765625" height="242.61041259765625" width="375.07952880859375"><g><svg></svg></g><g><svg viewBox="0 0 375.07952880859375 242.61041259765625" height="242.61041259765625" width="375.07952880859375"><g transform="matrix(1,0,0,1,-10.220239639282227,-4.5895843505859375)"><path xmlns="http://www.w3.org/2000/svg" d="M10.22 242.61v-238.02h375.08v238.02h-20.5l0-13.824h6.676v-210.372h-347.432v210.372l6.676 0 0 13.824z" fill="#24459e" fill-rule="nonzero" stroke="none" stroke-width="1" stroke-linecap="butt" stroke-linejoin="miter" stroke-miterlimit="10" stroke-dasharray="" stroke-dashoffset="0" font-family="none" font-weight="none" font-size="none" text-anchor="none" style="mix-blend-mode: normal" data-fill-palette-color="tertiary"></path><g><path xmlns="http://www.w3.org/2000/svg" d="M75.806 229.333v12.727h-3.411v-12.727zM72.193 226.043v0c0-0.511 0.17-0.93 0.511-1.257 0.344-0.331 0.809-0.496 1.397-0.496v0c0.578 0 1.04 0.165 1.387 0.496 0.344 0.328 0.515 0.747 0.515 1.257v0c0 0.517-0.175 0.939-0.525 1.267-0.347 0.331-0.806 0.496-1.377 0.496-0.575 0-1.036-0.165-1.383-0.496-0.35-0.328-0.525-0.75-0.525-1.267zM78.532 229.333h3.199l0.106 1.474c0.909-1.137 2.128-1.705 3.656-1.705v0c1.349 0 2.352 0.395 3.011 1.185 0.658 0.793 0.996 1.977 1.011 3.55v0 8.223h-3.396v-8.136c0-0.723-0.157-1.246-0.472-1.57-0.315-0.328-0.837-0.491-1.565-0.492v0c-0.954 0-1.67 0.408-2.149 1.224v0 8.974h-3.401zM96.433 242.06h-3.411v-10.231h-1.893v-2.496h1.893v-1.079c0-1.429 0.409-2.537 1.229-3.323 0.819-0.787 1.965-1.18 3.439-1.181v0c0.472 0 1.049 0.079 1.729 0.236v0l-0.033 2.631c-0.283-0.071-0.628-0.106-1.036-0.106v0c-1.278 0-1.917 0.601-1.917 1.801v0 1.021h2.529v2.496h-2.529zM100.195 235.735v-0.154c0-1.262 0.242-2.388 0.727-3.377 0.488-0.989 1.188-1.753 2.1-2.293 0.915-0.54 1.977-0.809 3.185-0.809v0c1.715 0 3.115 0.525 4.2 1.575 1.089 1.05 1.696 2.476 1.821 4.278v0l0.024 0.872c0 1.953-0.546 3.518-1.638 4.697-1.089 1.182-2.55 1.773-4.383 1.772-1.837 0-3.301-0.588-4.394-1.763-1.095-1.179-1.643-2.778-1.642-4.798zM103.596 235.827v0c0 1.207 0.226 2.131 0.679 2.77 0.456 0.639 1.108 0.959 1.956 0.958v0c0.822 0 1.464-0.316 1.926-0.949 0.462-0.629 0.694-1.638 0.694-3.025v0c0-1.185-0.231-2.103-0.694-2.755-0.462-0.649-1.113-0.973-1.95-0.973v0c-0.832 0-1.476 0.323-1.932 0.968-0.453 0.649-0.679 1.651-0.679 3.006zM121.539 229.252l-0.048 3.27c-0.462-0.064-0.869-0.096-1.219-0.096v0c-1.288 0-2.131 0.435-2.529 1.305v0 8.329h-3.4v-12.727h3.213l0.091 1.518c0.684-1.166 1.63-1.749 2.837-1.749v0c0.376 0 0.727 0.05 1.055 0.15zM123.129 229.333h3.184l0.106 1.426c0.902-1.105 2.123-1.657 3.661-1.657v0c1.638 0 2.762 0.645 3.372 1.937v0c0.896-1.291 2.171-1.936 3.825-1.937v0c1.381 0 2.409 0.401 3.083 1.204 0.671 0.803 1.007 2.012 1.006 3.628v0 8.126h-3.41v-8.117c0-0.719-0.14-1.246-0.419-1.58-0.283-0.334-0.78-0.501-1.493-0.501v0c-1.021 0-1.728 0.487-2.12 1.46v0l0.01 8.738h-3.396v-8.102c0-0.739-0.145-1.272-0.434-1.599-0.292-0.331-0.787-0.496-1.484-0.497v0c-0.963 0-1.662 0.4-2.095 1.2v0 8.998h-3.396zM154.787 242.06h-3.435c-0.157-0.305-0.271-0.686-0.342-1.141v0c-0.822 0.918-1.892 1.378-3.208 1.377v0c-1.246 0-2.278-0.361-3.097-1.084-0.822-0.719-1.233-1.628-1.234-2.726v0c0-1.349 0.501-2.384 1.503-3.107 0.999-0.719 2.442-1.084 4.331-1.094v0h1.566v-0.727c0-0.588-0.151-1.058-0.453-1.411-0.302-0.353-0.779-0.53-1.431-0.53v0c-0.572 0-1.02 0.136-1.344 0.409-0.324 0.276-0.487 0.654-0.486 1.132v0h-3.401c0-0.739 0.228-1.421 0.684-2.047 0.453-0.626 1.095-1.118 1.927-1.474 0.832-0.356 1.765-0.535 2.798-0.535v0c1.567 0 2.812 0.393 3.734 1.18 0.922 0.787 1.383 1.895 1.382 3.324v0 5.516c0.01 1.207 0.178 2.12 0.506 2.736v0zM148.544 239.695v0c0.501 0 0.963-0.111 1.387-0.332 0.424-0.225 0.737-0.525 0.94-0.901v0-2.187h-1.272c-1.699 0-2.604 0.588-2.717 1.763v0l-0.01 0.202c0 0.421 0.149 0.769 0.448 1.046 0.299 0.273 0.707 0.409 1.224 0.409zM157.561 226.207h3.401v3.126h2.178v2.496h-2.178v6.349c0 0.472 0.09 0.809 0.27 1.011 0.18 0.206 0.525 0.308 1.036 0.308v0c0.376 0 0.708-0.027 0.997-0.081v0 2.572c-0.665 0.206-1.35 0.308-2.057 0.308v0c-2.383 0-3.598-1.204-3.647-3.613v0-6.854h-1.854v-2.496h1.854zM168.617 229.333v12.727h-3.411v-12.727zM165.009 226.043v0c0-0.511 0.17-0.93 0.51-1.257 0.34-0.331 0.804-0.496 1.392-0.496v0c0.581 0 1.044 0.165 1.388 0.496 0.347 0.328 0.52 0.747 0.52 1.257v0c0 0.517-0.175 0.939-0.525 1.267-0.35 0.331-0.811 0.496-1.383 0.496-0.572 0-1.032-0.165-1.382-0.496-0.347-0.328-0.52-0.75-0.52-1.267zM170.885 235.735v-0.154c0-1.262 0.244-2.388 0.733-3.377 0.485-0.989 1.185-1.753 2.1-2.293 0.912-0.54 1.972-0.809 3.179-0.809v0c1.718 0 3.12 0.525 4.206 1.575 1.085 1.05 1.691 2.476 1.816 4.278v0l0.024 0.872c0 1.953-0.546 3.518-1.638 4.697-1.089 1.182-2.55 1.773-4.384 1.772-1.834 0-3.298-0.588-4.393-1.763-1.095-1.179-1.643-2.778-1.643-4.798zM174.286 235.827v0c0 1.207 0.228 2.131 0.684 2.77 0.453 0.639 1.103 0.959 1.951 0.958v0c0.822 0 1.464-0.316 1.927-0.949 0.462-0.629 0.694-1.638 0.694-3.025v0c0-1.185-0.231-2.103-0.694-2.755-0.462-0.649-1.113-0.973-1.951-0.973v0c-0.832 0-1.474 0.323-1.927 0.968-0.456 0.649-0.684 1.651-0.684 3.006zM184.966 229.333h3.198l0.106 1.474c0.909-1.137 2.128-1.705 3.657-1.705v0c1.349 0 2.352 0.395 3.01 1.185 0.658 0.793 0.996 1.977 1.012 3.55v0 8.223h-3.401v-8.136c0-0.723-0.156-1.246-0.467-1.57-0.315-0.328-0.837-0.491-1.566-0.492v0c-0.957 0-1.675 0.408-2.153 1.224v0 8.974h-3.396zM205.193 226.207h3.401v3.126h2.172v2.496h-2.172v6.349c0 0.472 0.09 0.809 0.269 1.011 0.18 0.206 0.525 0.308 1.036 0.308v0c0.376 0 0.708-0.027 0.997-0.081v0 2.572c-0.665 0.206-1.35 0.308-2.057 0.308v0c-2.383 0-3.598-1.204-3.646-3.613v0-6.854h-1.86v-2.496h1.86zM218.517 242.296v0c-1.866 0-3.385-0.573-4.557-1.719-1.172-1.143-1.758-2.667-1.758-4.572v0-0.332c0-1.278 0.247-2.42 0.741-3.425 0.495-1.008 1.195-1.786 2.101-2.332 0.906-0.543 1.938-0.814 3.097-0.814v0c1.741 0 3.11 0.548 4.109 1.643 1.002 1.098 1.503 2.656 1.503 4.672v0 1.388h-8.107c0.112 0.829 0.445 1.495 0.997 1.999 0.552 0.501 1.251 0.751 2.095 0.751v0c1.31 0 2.335-0.474 3.074-1.421v0l1.666 1.869c-0.507 0.719-1.196 1.281-2.066 1.686-0.87 0.405-1.835 0.607-2.895 0.607zM218.131 231.853v0c-0.674 0-1.222 0.226-1.642 0.679-0.421 0.456-0.689 1.108-0.805 1.956v0h4.726v-0.27c-0.016-0.755-0.22-1.338-0.612-1.749-0.392-0.411-0.947-0.617-1.667-0.616zM230.974 239.555v0c0.626 0 1.135-0.172 1.527-0.515 0.392-0.347 0.596-0.806 0.612-1.378v0h3.184c-0.006 0.861-0.241 1.651-0.704 2.37-0.462 0.716-1.095 1.273-1.898 1.672-0.806 0.395-1.694 0.593-2.663 0.592v0c-1.821 0-3.256-0.578-4.307-1.734-1.05-1.156-1.575-2.754-1.575-4.793v0-0.226c0-1.959 0.522-3.523 1.565-4.692 1.04-1.166 2.471-1.749 4.293-1.749v0c1.59 0 2.866 0.453 3.829 1.359 0.96 0.906 1.447 2.11 1.46 3.612v0h-3.184c-0.016-0.658-0.22-1.193-0.612-1.604-0.392-0.411-0.909-0.617-1.551-0.616v0c-0.793 0-1.392 0.287-1.797 0.862-0.401 0.578-0.602 1.514-0.602 2.808v0 0.352c0 1.31 0.199 2.251 0.597 2.823 0.401 0.572 1.01 0.857 1.826 0.857zM241.557 223.996v6.725c0.902-1.079 2.034-1.619 3.396-1.619v0c2.762 0 4.162 1.602 4.2 4.808v0 8.15h-3.4v-8.054c0-0.729-0.156-1.268-0.468-1.619-0.315-0.35-0.837-0.525-1.565-0.525v0c-0.996 0-1.716 0.385-2.163 1.157v0 9.041h-3.401v-18.064zM251.649 229.333h3.198l0.106 1.474c0.909-1.137 2.128-1.705 3.656-1.705v0c1.349 0 2.352 0.395 3.011 1.185 0.658 0.793 0.996 1.977 1.012 3.55v0 8.223h-3.401v-8.136c0-0.723-0.156-1.246-0.467-1.57-0.315-0.328-0.837-0.491-1.566-0.492v0c-0.957 0-1.675 0.408-2.153 1.224v0 8.974h-3.396zM264.679 235.735v-0.154c0-1.262 0.242-2.388 0.727-3.377 0.485-0.989 1.185-1.753 2.101-2.293 0.912-0.54 1.972-0.809 3.179-0.809v0c1.718 0 3.12 0.525 4.205 1.575 1.085 1.05 1.691 2.476 1.816 4.278v0l0.024 0.872c0 1.953-0.544 3.518-1.633 4.697-1.092 1.182-2.555 1.773-4.388 1.772-1.834 0-3.298-0.588-4.393-1.763-1.092-1.179-1.638-2.778-1.638-4.798zM268.075 235.827v0c0 1.207 0.228 2.131 0.684 2.77 0.453 0.639 1.103 0.959 1.951 0.958v0c0.822 0 1.464-0.316 1.927-0.949 0.462-0.629 0.694-1.638 0.693-3.025v0c0-1.185-0.231-2.103-0.693-2.755-0.462-0.649-1.113-0.973-1.951-0.973v0c-0.832 0-1.474 0.323-1.927 0.968-0.456 0.649-0.684 1.651-0.684 3.006zM282.411 223.996v18.064h-3.411v-18.064zM284.679 235.735v-0.154c0-1.262 0.244-2.388 0.733-3.377 0.485-0.989 1.185-1.753 2.1-2.293 0.912-0.54 1.972-0.809 3.179-0.809v0c1.718 0 3.12 0.525 4.205 1.575 1.085 1.05 1.691 2.476 1.817 4.278v0l0.024 0.872c0 1.953-0.544 3.518-1.633 4.697-1.092 1.182-2.555 1.773-4.389 1.772-1.834 0-3.298-0.588-4.393-1.763-1.095-1.179-1.643-2.778-1.643-4.798zM288.08 235.827v0c0 1.207 0.228 2.131 0.684 2.77 0.453 0.639 1.103 0.959 1.951 0.958v0c0.822 0 1.464-0.316 1.927-0.949 0.462-0.629 0.694-1.638 0.694-3.025v0c0-1.185-0.231-2.103-0.694-2.755-0.462-0.649-1.113-0.973-1.951-0.973v0c-0.832 0-1.474 0.323-1.927 0.968-0.456 0.649-0.684 1.651-0.684 3.006zM298.336 235.745v-0.14c0-1.953 0.464-3.525 1.392-4.716 0.931-1.191 2.184-1.787 3.757-1.787v0c1.397 0 2.484 0.477 3.262 1.431v0l0.139-1.2h3.078v12.303c0 1.114-0.252 2.083-0.756 2.905-0.504 0.822-1.216 1.45-2.134 1.883-0.918 0.43-1.993 0.645-3.223 0.646v0c-0.935 0-1.843-0.186-2.726-0.559-0.886-0.373-1.558-0.853-2.014-1.44v0l1.508-2.072c0.845 0.951 1.871 1.426 3.078 1.426v0c0.902 0 1.604-0.241 2.105-0.722 0.501-0.485 0.751-1.169 0.752-2.052v0-0.684c-0.784 0.886-1.814 1.33-3.093 1.329v0c-1.529 0-2.765-0.597-3.709-1.792-0.944-1.198-1.416-2.784-1.416-4.759zM301.732 235.851v0c0 1.153 0.233 2.057 0.698 2.712 0.462 0.655 1.097 0.983 1.903 0.983v0c1.034 0 1.774-0.389 2.221-1.166v0-5.352c-0.453-0.777-1.185-1.166-2.197-1.166v0c-0.816 0-1.456 0.334-1.922 1.002-0.469 0.665-0.703 1.66-0.703 2.987zM314.964 229.333l2.366 7.915 2.35-7.915h3.647l-5.116 14.702-0.284 0.67c-0.761 1.663-2.015 2.495-3.762 2.495v0c-0.495 0-0.996-0.074-1.503-0.222v0-2.577l0.515 0.01c0.642 0 1.122-0.098 1.441-0.294 0.318-0.196 0.567-0.52 0.746-0.973v0l0.4-1.05-4.456-12.761z" fill="#ffffff" fill-rule="nonzero" stroke="none" stroke-width="1" stroke-linecap="butt" stroke-linejoin="miter" stroke-miterlimit="10" stroke-dasharray="" stroke-dashoffset="0" font-family="none" font-weight="none" font-size="none" text-anchor="none" style="mix-blend-mode: normal" data-fill-palette-color="secondary"></path></g></g><g transform="matrix(1,0,0,1,29.331764404296877,44.657937002020276)"><svg viewBox="0 0 316.416 153.2945385936157" height="153.2945385936157" width="316.416"><g><svg viewBox="0 0 357.17270257846155 173.04" height="153.2945385936157" width="316.416"><g transform="matrix(1,0,0,1,161.67077950153845,0)"><svg viewBox="0 0 195.50192307692308 173.04" height="173.04" width="195.50192307692308"><g><svg viewBox="0 0 195.50192307692308 173.04" height="173.04" width="195.50192307692308"><g><svg viewBox="0 0 195.50192307692308 173.04" height="173.04" width="195.50192307692308"><g transform="matrix(1,0,0,1,0,0)"><svg width="195.50192307692308" viewBox="3.640000104904175 -35.54999923706055 40.15999984741211 35.54999923706055" height="173.04" data-palette-color="#24459e"><path d="M10.96-35.55L10.96 0 3.64 0 3.64-35.55 10.96-35.55ZM43.8-35.55L43.8-29.61 32.91-29.61 32.91 0 25.58 0 25.58-29.61 14.84-29.61 14.84-35.55 43.8-35.55Z" opacity="1" transform="matrix(1,0,0,1,0,0)" fill="#ffffff" class="undefined-text-0" data-fill-palette-color="primary" id="text-0"></path></svg></g></svg></g></svg></g></svg></g><g transform="matrix(1,0,0,1,0,26.697348896829617)"><svg viewBox="0 0 120.82018846153846 119.64530220634076" height="119.64530220634076" width="120.82018846153846"><g><svg xmlns="http://www.w3.org/2000/svg" xmlns:xlink="http://www.w3.org/1999/xlink" version="1.1" x="0" y="0" viewBox="4.083998680114746 4.531000137329102 91.83200073242188 90.93900299072266" enable-background="new 0 0 100 100" xml:space="preserve" height="119.64530220634076" width="120.82018846153846" class="icon-icon-0" data-fill-palette-color="accent" id="icon-0"><g fill="#24459e" data-fill-palette-color="accent"><path fill="none" d="M27.751 31.829v37.153c0 1.682 1.367 3.047 3.047 3.047h37.153c1.682 0 3.048-1.365 3.048-3.047V31.829c0-1.68-1.366-3.047-3.048-3.047H30.798C29.118 28.782 27.751 30.149 27.751 31.829zM40.021 45.799c0-2.358 1.912-4.271 4.27-4.271h10.168c2.357 0 4.27 1.912 4.27 4.271v9.215c0 2.358-1.912 4.271-4.27 4.271H44.291c-2.358 0-4.27-1.912-4.27-4.271V45.799z"></path><path d="M26.684 31.829v37.153c0 2.27 1.846 4.115 4.115 4.115h37.153c2.27 0 4.115-1.846 4.115-4.115V31.829c0-2.269-1.846-4.114-4.115-4.114H30.798C28.529 27.715 26.684 29.561 26.684 31.829zM70.999 31.829v37.153c0 1.682-1.366 3.047-3.048 3.047H30.798c-1.681 0-3.047-1.365-3.047-3.047V31.829c0-1.68 1.367-3.047 3.047-3.047h37.153C69.633 28.782 70.999 30.149 70.999 31.829z" fill="#ffffff" data-fill-palette-color="accent"></path><path d="M44.291 59.284h10.168c2.357 0 4.27-1.912 4.27-4.271v-9.215c0-2.358-1.912-4.271-4.27-4.271H44.291c-2.358 0-4.27 1.912-4.27 4.271v9.215C40.021 57.372 41.933 59.284 44.291 59.284z" fill="#ffffff" data-fill-palette-color="accent"></path><circle cx="35.146" cy="22.323" r="3.0" fill="#ffffff" data-fill-palette-color="accent"></circle><path d="M53.896 25.323c1.657 0 3-1.344 3-3 0-1.486-1.082-2.71-2.5-2.95V8.51h17.446c0.244 1.682 1.679 2.979 3.429 2.979 1.921 0 3.479-1.558 3.479-3.479s-1.559-3.479-3.479-3.479c-1.75 0-3.185 1.297-3.429 2.979H53.396v11.863c-1.417 0.239-2.5 1.464-2.5 2.95C50.896 23.979 52.239 25.323 53.896 25.323z" fill="#ffffff" data-fill-palette-color="accent"></path><path d="M44.479 75.489c-1.656 0-3 1.344-3 3 0 1.485 1.083 2.71 2.5 2.95V91.49h-1.925c-0.245-1.683-1.679-2.979-3.429-2.979-1.921 0-3.479 1.558-3.479 3.479 0 1.921 1.558 3.479 3.479 3.479 1.75 0 3.184-1.297 3.429-2.979h2.925V81.439c1.418-0.24 2.5-1.465 2.5-2.95C47.479 76.833 46.136 75.489 44.479 75.489z" fill="#ffffff" data-fill-palette-color="accent"></path><path d="M74.208 36.947c0 1.656 1.344 3 3 3 1.485 0 2.71-1.083 2.95-2.5h1.518c0.244 1.683 1.678 2.979 3.428 2.979 1.922 0 3.479-1.558 3.479-3.479s-1.558-3.479-3.479-3.479c-1.75 0-3.184 1.296-3.428 2.979h-1.518c-0.24-1.418-1.465-2.5-2.95-2.5C75.552 33.947 74.208 35.29 74.208 36.947z" fill="#ffffff" data-fill-palette-color="accent"></path><path d="M24.542 64.697c0-1.656-1.344-3-3-3-1.486 0-2.71 1.083-2.95 2.5h-2.122c-0.244-1.683-1.679-2.979-3.429-2.979-1.921 0-3.479 1.557-3.479 3.479s1.558 3.479 3.479 3.479c1.75 0 3.185-1.296 3.429-2.979h2.122c0.239 1.418 1.464 2.5 2.95 2.5C23.198 67.697 24.542 66.354 24.542 64.697z" fill="#ffffff" data-fill-palette-color="accent"></path><path d="M25.021 11.489c1.75 0 3.184-1.297 3.429-2.979h6.196v10.813h0.5 0.5V7.51H28.45c-0.245-1.682-1.679-2.979-3.429-2.979-1.921 0-3.479 1.558-3.479 3.479S23.1 11.489 25.021 11.489z" fill="#ffffff" data-fill-palette-color="accent"></path><path d="M43.979 11.439v7.935c-1.417 0.239-2.5 1.464-2.5 2.95 0 1.656 1.344 3 3 3 1.657 0 3-1.344 3-3 0-1.486-1.082-2.71-2.5-2.95v-7.935c1.683-0.245 2.979-1.679 2.979-3.429 0-1.921-1.558-3.479-3.479-3.479S41 6.089 41 8.01C41 9.76 42.296 11.194 43.979 11.439z" fill="#ffffff" data-fill-palette-color="accent"></path><path d="M66.375 13.188c0-1.921-1.559-3.479-3.479-3.479s-3.479 1.558-3.479 3.479c0 1.75 1.297 3.184 2.979 3.429v2.757c-1.417 0.239-2.5 1.464-2.5 2.95 0 1.656 1.344 3 3 3 1.657 0 3-1.344 3-3 0-1.486-1.082-2.71-2.5-2.95v-2.757C65.078 16.372 66.375 14.938 66.375 13.188z" fill="#ffffff" data-fill-palette-color="accent"></path><path d="M91.938 31.144V45.78H80.158c-0.24-1.417-1.465-2.5-2.95-2.5-1.656 0-3 1.344-3 3 0 1.657 1.344 3 3 3 1.485 0 2.71-1.082 2.95-2.5h12.779V31.144c1.682-0.244 2.979-1.679 2.979-3.429 0-1.921-1.558-3.479-3.479-3.479-1.922 0-3.479 1.558-3.479 3.479C88.958 29.465 90.255 30.899 91.938 31.144z" fill="#ffffff" data-fill-palette-color="accent"></path><path d="M92.063 49.219c-1.75 0-3.185 1.296-3.43 2.979h-4.717v3h-3.758c-0.24-1.417-1.465-2.5-2.95-2.5-1.656 0-3 1.344-3 3 0 1.657 1.344 3 3 3 1.485 0 2.71-1.082 2.95-2.5h4.758v-3h3.717c0.245 1.683 1.68 2.979 3.43 2.979 1.921 0 3.479-1.557 3.479-3.479S93.983 49.219 92.063 49.219z" fill="#ffffff" data-fill-palette-color="accent"></path><path d="M54.396 88.561v-7.121c1.418-0.24 2.5-1.465 2.5-2.95 0-1.656-1.343-3-3-3-1.656 0-3 1.344-3 3 0 1.485 1.083 2.71 2.5 2.95v7.121c-1.683 0.245-2.979 1.68-2.979 3.43 0 1.921 1.558 3.479 3.479 3.479s3.479-1.558 3.479-3.479C57.375 90.24 56.078 88.806 54.396 88.561z" fill="#ffffff" data-fill-palette-color="accent"></path><path d="M71.729 83.511c-1.75 0-3.184 1.297-3.428 2.979h-4.905v-5.051c1.418-0.24 2.5-1.465 2.5-2.95 0-1.656-1.343-3-3-3-1.656 0-3 1.344-3 3 0 1.485 1.083 2.71 2.5 2.95v6.051h5.905c0.244 1.682 1.678 2.979 3.428 2.979 1.922 0 3.479-1.558 3.479-3.479C75.208 85.068 73.65 83.511 71.729 83.511z" fill="#ffffff" data-fill-palette-color="accent"></path><path d="M91.396 68.344c-1.75 0-3.185 1.297-3.429 2.979h-4.092v-7.126h-3.717c-0.24-1.417-1.465-2.5-2.95-2.5-1.656 0-3 1.344-3 3 0 1.657 1.344 3 3 3 1.485 0 2.71-1.082 2.95-2.5h2.717v7.126h5.092c0.244 1.683 1.679 2.979 3.429 2.979 1.921 0 3.479-1.559 3.479-3.479S93.316 68.344 91.396 68.344z" fill="#ffffff" data-fill-palette-color="accent"></path><path d="M8.396 31.194c1.75 0 3.185-1.296 3.429-2.979h0.717v9.232h6.05c0.239 1.417 1.464 2.5 2.95 2.5 1.656 0 3-1.344 3-3 0-1.657-1.344-3-3-3-1.486 0-2.71 1.082-2.95 2.5h-5.05v-9.232h-1.717c-0.244-1.683-1.679-2.979-3.429-2.979-1.921 0-3.479 1.558-3.479 3.479S6.475 31.194 8.396 31.194z" fill="#ffffff" data-fill-palette-color="accent"></path><path d="M7.063 42.606v3.383h11.508c-0.009 0.097-0.029 0.191-0.029 0.291 0 1.657 1.343 3 3 3 1.656 0 3-1.343 3-3 0-1.656-1.344-3-3-3-1.193 0-2.214 0.701-2.697 1.709H8.063v-2.383c1.682-0.245 2.979-1.679 2.979-3.429 0-1.921-1.558-3.479-3.479-3.479s-3.479 1.558-3.479 3.479C4.084 40.927 5.381 42.361 7.063 42.606z" fill="#ffffff" data-fill-palette-color="accent"></path><path d="M10.992 60.239h3.383v-4.333h4.188c0.109 1.558 1.394 2.791 2.979 2.791 1.656 0 3-1.343 3-3 0-1.656-1.344-3-3-3-1.381 0-2.532 0.939-2.881 2.209h-5.286v4.333h-2.383c-0.245-1.683-1.679-2.979-3.429-2.979-1.921 0-3.479 1.559-3.479 3.479s1.558 3.479 3.479 3.479C9.313 63.219 10.747 61.922 10.992 60.239z" fill="#ffffff" data-fill-palette-color="accent"></path><path d="M35.646 81.439c1.417-0.24 2.5-1.465 2.5-2.95 0-1.656-1.344-3-3-3-1.657 0-3 1.344-3 3 0 1.485 1.082 2.71 2.5 2.95v3.029h-6.675c-0.244-1.683-1.679-2.979-3.429-2.979-1.921 0-3.479 1.558-3.479 3.479 0 1.921 1.558 3.479 3.479 3.479 1.75 0 3.185-1.297 3.429-2.979h7.675V81.439z" fill="#ffffff" data-fill-palette-color="accent"></path></g></svg></g></svg></g></svg></g></svg></g></svg></g><defs></defs></svg><rect width="375.07952880859375" height="242.61041259765625" fill="none" stroke="none" visibility="hidden"></rect></g></svg></g></svg>